<svg width="1098" height="1061" viewBox="0 0 1098 1061" fill="none" xmlns="http://www.w3.org/2000/svg">
<g filter="url(#filter0_d_208_12)">
<path d="M84 680.131C183.463 888.095 509.457 1179.24 1017.73 680.131" stroke="#21AFFF" stroke-width="35.3548"/>
</g>
<g filter="url(#filter1_d_208_12)">
<path d="M719.403 601.111C574.094 601.111 456.533 481.478 456.533 333.609C456.533 271.191 477.708 213.975 512.758 168.648C560.951 231.066 635.431 270.448 719.403 270.448C803.376 270.448 877.856 230.323 926.049 168.648C961.099 213.975 982.274 271.191 982.274 333.609C982.274 481.478 863.982 601.111 719.403 601.111Z" fill="#21AFFF"/>
</g>
<g filter="url(#filter2_d_208_12)">
<path d="M342.401 304.764C342.401 388.736 302.276 463.217 240.601 511.41C285.928 546.459 343.144 567.635 405.562 567.635C553.431 567.635 673.064 450.073 673.064 304.764C673.064 159.455 553.431 41.8929 405.562 41.8929C343.144 41.8929 285.928 63.0686 240.601 98.118C302.276 145.581 342.401 220.791 342.401 304.764Z" fill="#00EB18"/>
</g>
<defs>
<filter id="filter0_d_208_12" x="0.877907" y="620.495" width="1096.41" height="440.244" filterUnits="userSpaceOnUse" color-interpolation-filters="sRGB">
<feFlood flood-opacity="0" result="BackgroundImageFix"/>
<feColorMatrix in="SourceAlpha" type="matrix" values="0 0 0 0 0 0 0 0 0 0 0 0 0 0 0 0 0 0 127 0" result="hardAlpha"/>
<feOffset dy="20.1525"/>
<feGaussianBlur stdDeviation="33.5874"/>
<feComposite in2="hardAlpha" operator="out"/>
<feColorMatrix type="matrix" values="0 0 0 0 0.129412 0 0 0 0 0.686275 0 0 0 0 1 0 0 0 0.25 0"/>
<feBlend mode="normal" in2="BackgroundImageFix" result="effect1_dropShadow_208_12"/>
<feBlend mode="normal" in="SourceGraphic" in2="effect1_dropShadow_208_12" result="shape"/>
</filter>
<filter id="filter1_d_208_12" x="397.435" y="127.281" width="643.936" height="550.657" filterUnits="userSpaceOnUse" color-interpolation-filters="sRGB">
<feFlood flood-opacity="0" result="BackgroundImageFix"/>
<feColorMatrix in="SourceAlpha" type="matrix" values="0 0 0 0 0 0 0 0 0 0 0 0 0 0 0 0 0 0 127 0" result="hardAlpha"/>
<feOffset dy="17.7291"/>
<feGaussianBlur stdDeviation="29.5484"/>
<feComposite in2="hardAlpha" operator="out"/>
<feColorMatrix type="matrix" values="0 0 0 0 0.129412 0 0 0 0 0.686275 0 0 0 0 1 0 0 0 0.25 0"/>
<feBlend mode="normal" in2="BackgroundImageFix" result="effect1_dropShadow_208_12"/>
<feBlend mode="normal" in="SourceGraphic" in2="effect1_dropShadow_208_12" result="shape"/>
</filter>
<filter id="filter2_d_208_12" x="181.505" y="0.524786" width="550.657" height="643.936" filterUnits="userSpaceOnUse" color-interpolation-filters="sRGB">
<feFlood flood-opacity="0" result="BackgroundImageFix"/>
<feColorMatrix in="SourceAlpha" type="matrix" values="0 0 0 0 0 0 0 0 0 0 0 0 0 0 0 0 0 0 127 0" result="hardAlpha"/>
<feOffset dy="17.7291"/>
<feGaussianBlur stdDeviation="29.5484"/>
<feComposite in2="hardAlpha" operator="out"/>
<feColorMatrix type="matrix" values="0 0 0 0 0 0 0 0 0 0.921569 0 0 0 0 0.0941176 0 0 0 0.25 0"/>
<feBlend mode="normal" in2="BackgroundImageFix" result="effect1_dropShadow_208_12"/>
<feBlend mode="normal" in="SourceGraphic" in2="effect1_dropShadow_208_12" result="shape"/>
</filter>
</defs>
</svg>
